<?xml version="1.0" encoding="utf-8"?>
<!-- Generator: Adobe Illustrator 19.1.0, SVG Export Plug-In . SVG Version: 6.00 Build 0)  -->
<svg version="1.0" id="Logotype" xmlns="http://www.w3.org/2000/svg" xmlns:xlink="http://www.w3.org/1999/xlink" x="0px" y="0px"
	 viewBox="0 0 600.9 306" style="enable-background:new 0 0 600.9 306;" xml:space="preserve">
<style type="text/css">
	.st0{fill:#00ABE6;}
</style>
<g>
	<path d="M117.7,206.8c-3.9,0-7.8-2-10-5.6l-41.6-68l-41.6,68c-3.4,5.5-10.6,7.2-16.1,3.9c-5.5-3.4-7.2-10.6-3.9-16.1l51.6-84.3
		c2.1-3.5,5.9-5.6,10-5.6c4.1,0,7.8,2.1,10,5.6l51.6,84.3c3.4,5.5,1.6,12.7-3.9,16.1C121.9,206.3,119.8,206.8,117.7,206.8z"/>
</g>
<g>
	<path class="st0" d="M448,303.1c-35.2,0-69.3-12.4-96.3-34.9c-4.9-4.1-5.6-11.5-1.5-16.5c4.1-5,11.5-5.6,16.5-1.5
		c22.7,19,51.6,29.5,81.3,29.5c69.9,0,126.8-56.9,126.8-126.8c0-69.9-56.9-126.8-126.8-126.8c-29.7,0-58.6,10.5-81.3,29.5
		c-5,4.1-12.3,3.5-16.5-1.5c-4.1-4.9-3.5-12.3,1.5-16.5C378.6,15.2,412.8,2.8,448,2.8c82.8,0,150.1,67.4,150.1,150.2
		C598.1,235.8,530.8,303.1,448,303.1z"/>
</g>
<g>
	<path d="M321.7,206.8c-6.5,0-11.7-5.2-11.7-11.7v-84.3c0-6.5,5.2-11.7,11.7-11.7c6.5,0,11.7,5.2,11.7,11.7v84.3
		C333.3,201.6,328.1,206.8,321.7,206.8z"/>
</g>
<g>
	<path d="M493.6,206.8c-3.9,0-7.8-2-10-5.6l-41.6-68l-41.6,68c-3.4,5.5-10.6,7.2-16.1,3.9c-5.5-3.4-7.2-10.6-3.9-16.1l51.6-84.3
		c2.1-3.5,5.9-5.6,10-5.6c4.1,0,7.8,2.1,10,5.6l51.6,84.3c3.4,5.5,1.6,12.7-3.9,16.1C497.7,206.3,495.6,206.8,493.6,206.8z"/>
</g>
<path d="M186.2,206.8c-6.4,0-11.6-5.2-11.6-11.6v-83.5c0-6.4,5.2-11.6,11.6-11.6c0,0,22.6-0.1,34.8-0.1c18.9,0,39.2,14.6,39.2,38.2
	c0,10.7-4.5,20.1-12.6,27.2c-1.4,1.3-3,2.4-4.6,3.9l18.2,17.5c4.6,4.4,4.8,11.8,0.4,16.4c-4.4,4.6-11.8,4.8-16.4,0.4L221,180.3
	c-3.4-3.3-6.3-6.8-6.4-12.5c-0.1-5,3-9,6.4-10.8c3.3-1.8,8.9-5.6,12-8.7c2.5-2.4,4-6,4-9.9c0-9.3-8.3-15-16-15c-6.5,0-15.8,0-23.2,0
	v71.9C197.8,201.6,192.6,206.8,186.2,206.8z"/>
</svg>
